PathFileType	4	(X/Y/Z)	F:\MotionCapture\20160217\3\Generated_files\2_Test02-Dynamic.trc
DataRate	CameraRate	NumFrames	NumMarkers	Units	OrigDataRate	OrigDataStartFrame	OrigNumFrames
120.00	120.00	       5	39	mm	120.00	236	       627
Frame#	Time	Top.Head			Front.Head			Rear.Head			R.Shoulder			R.Offset			R.Elbow			R.Wrist			L.Shoulder			L.Elbow			L.Wrist			R.ASIS			L.ASIS			V.Sacral			R.Thigh			R.Knee			R.Shank			R.Ankle			R.Heel			R.Toe			L.Thigh			L.Knee			L.Shank			L.Ankle			L.Heel			L.Toe			R1			R2			R3			R4			R5			R6			R7			L1			L2			L3			L4			L5			L6			L7			V_Mid_ASIS			V_Pelvis_Origin			V_R.Hip_JC			V_L.Hip_JC			V_R.Knee_JC			V_L.Knee_JC			V_R.Ankle_JC			V_L.Ankle_JC			V_Mid_Hip			V_Mid_Shoulder			V_R.Hand			V_L.Hand			V_R.Toe_Offset_Static			V_L.Toe_Offset_Static			V_R.Toe_Offset			V_L.Toe_Offset			
		X1	Y1	Z1	X2	Y2	Z2	X3	Y3	Z3	X4	Y4	Z4	X5	Y5	Z5	X6	Y6	Z6	X7	Y7	Z7	X8	Y8	Z8	X9	Y9	Z9	X10	Y10	Z10	X11	Y11	Z11	X12	Y12	Z12	X13	Y13	Z13	X14	Y14	Z14	X15	Y15	Z15	X16	Y16	Z16	X17	Y17	Z17	X18	Y18	Z18	X19	Y19	Z19	X20	Y20	Z20	X21	Y21	Z21	X22	Y22	Z22	X23	Y23	Z23	X24	Y24	Z24	X25	Y25	Z25	X26	Y26	Z26	X27	Y27	Z27	X28	Y28	Z28	X29	Y29	Z29	X30	Y30	Z30	X31	Y31	Z31	X32	Y32	Z32	X33	Y33	Z33	X34	Y34	Z34	X35	Y35	Z35	X36	Y36	Z36	X37	Y37	Z37	X38	Y38	Z38	X39	Y39	Z39	

236	1.958	-655.22711	195.33842	1700.43591	-752.92352	185.20132	1601.80310	-536.94995	194.25014	1647.70642	-544.18658	377.80405	1399.98901	-424.79321	95.34339	1269.60767	-408.71957	460.45837	1104.98682	-419.95880	468.25482	840.65448	-601.85901	-23.03852	1411.42847	-687.69678	-138.69104	1108.66895	-904.70624	-89.51917	980.18195	-620.57892	306.98389	933.02441	-614.98804	19.58200	934.55206	-391.70770	170.11702	933.48962	-783.25208	290.55219	624.57214	-745.44965	337.54425	491.33264	-787.73303	262.37396	263.78802	-757.12805	330.30438	85.61832	-697.42230	263.87244	53.93520	-895.03339	310.33710	82.20034	-598.74011	79.82110	596.70807	-468.81213	36.65198	452.42639	-442.66797	120.30268	316.82950	-310.95212	66.75901	75.24260	-242.67056	123.14425	68.60417	-446.93210	80.46134	37.48469	-936.96063	296.31296	98.54933	-902.64227	274.49915	90.43575	-809.94763	241.61842	90.07500	-740.27460	236.64948	64.98597	-726.18744	309.12949	58.21414	-803.90472	338.88446	58.42821	-865.85614	347.49890	65.43382	-490.88470	105.66950	30.47667	-456.50708	119.05397	41.29661	-361.64212	158.92105	54.97820	-279.61258	156.06552	64.35202	-269.89444	82.35145	62.38974	-342.87653	58.95057	35.29298	-404.28061	45.47363	35.19883																																																	-704.42242	174.21103	-24.86886	-519.00299	130.24355	7.10341	
237	1.967	-666.56201	195.86279	1698.22839	-764.32782	185.58702	1599.92371	-548.56323	194.54811	1645.36768	-555.90424	378.45578	1398.20898	-436.18808	96.16514	1267.67371	-418.13605	460.39178	1104.32104	-426.09573	468.12430	839.74890	-614.14801	-22.25951	1409.08081	-704.28766	-137.07861	1107.55164	-923.36847	-85.42959	984.32971	-632.49548	306.84113	930.57721	-626.19775	19.77904	932.94757	-404.06815	171.04585	931.95593	-794.43854	289.73361	621.57568	-758.59760	336.36911	489.19141	-811.91034	263.28525	264.45313	-792.13641	330.73654	84.79971	-731.80310	266.32077	50.35452	-927.95062	312.21075	88.31200	-604.95135	79.65540	594.00354	-473.74496	36.20591	451.78870	-446.47672	119.47543	316.39621	-311.65173	66.58487	76.87445	-242.94133	123.21551	70.85751	-447.37204	79.89896	37.69999	-968.86609	298.27203	106.30788	-934.76471	276.66403	95.79721	-842.42914	243.43460	91.59935	-774.38141	238.87508	63.19010	-760.86383	311.83188	54.83173	-838.42517	340.28168	59.49046	-899.60510	349.63193	70.04306	-490.90182	105.25688	29.91131	-456.45871	118.88669	41.28514	-362.59232	158.50172	56.01768	-280.48480	156.19041	65.85155	-270.11560	82.88731	63.82003	-343.37778	58.84645	35.93437	-404.61249	45.27151	35.13864																																																	-517.73352	129.18697	7.78673	
238	1.975	-678.10345	196.40045	1696.29797	-775.90894	185.86322	1598.06433	-560.49719	194.77550	1643.14075	-567.71387	379.32220	1396.58020	-447.30389	96.83414	1265.35669	-427.71997	460.55957	1103.34338	-432.24728	468.03345	838.76617	-626.21283	-21.43279	1406.81470	-720.31390	-135.51636	1106.57971	-941.42322	-81.63129	988.09479	-646.30658	307.63895	928.58258	-637.59222	20.27850	930.71478	-416.23779	172.16682	930.26917	-804.98438	288.94150	617.82013	-771.86432	335.28116	487.49948	-835.00220	263.93323	265.12711	-820.89868	334.43658	87.00497	-764.45306	268.27750	47.54053	-959.55859	314.42853	94.56122	-612.03845	78.83347	591.84100	-478.74847	35.75355	451.41904	-450.85806	119.28608	316.24619	-313.09677	67.52885	76.57751	-243.81982	123.47163	73.31294	-445.35916	80.13784	36.21230	-999.63379	299.94849	114.01743	-965.54919	278.87009	101.90932	-874.27301	245.11183	93.52077	-806.60583	240.83830	62.25958	-793.49860	314.03699	54.56802	-870.85498	341.93604	62.05908	-931.66644	351.94101	75.50971	-490.83188	105.01517	29.79519	-456.41721	118.74226	41.21388	-363.28738	158.40652	57.13912	-280.89456	156.33038	68.31608	-278.74808	88.23386	60.43936	-343.78662	58.50299	36.52417	-404.41635	45.72301	34.83516																																																	-516.07788	128.21872	8.79808	
239	1.983	-689.38989	196.77992	1694.09314	-787.65076	186.48242	1595.69727	-572.46515	195.30022	1641.12146	-577.52875	379.57172	1395.08630	-459.01910	97.38611	1263.50171	-437.12231	460.56958	1102.47253	-439.48425	467.72360	837.49176	-638.32788	-20.61788	1404.35364	-736.05072	-133.89938	1105.44336	-959.10950	-77.86355	991.48621	-659.05554	308.42764	926.71967	-648.66376	20.51286	928.49475	-428.31635	173.32930	928.51740	-815.54913	288.17926	614.18726	-783.93286	334.42093	485.50015	-857.46210	263.95761	266.21738				-797.34491	269.38321	45.74134	-989.89697	316.06409	101.25253	-620.37628	77.31462	589.66644	-484.39307	35.38554	451.25446	-455.26294	118.12957	316.13797	-313.14075	67.11632	78.39223	-245.22575	123.23114	75.64788	-445.35168	79.97149	36.13215	-1028.13599	301.60574	122.31767	-995.54291	281.39380	109.16405	-904.75555	246.29286	96.10841	-838.31726	242.07755	62.10732	-825.64404	315.37512	53.64417	-902.44275	343.84692	65.83469	-962.02502	353.38675	81.26614	-490.99481	104.89365	29.76442	-456.32101	118.59667	41.19091	-364.08994	157.87523	58.46242	-281.88205	156.21806	70.54538	-279.65884	88.15725	62.19847	-344.18164	58.25345	37.11432	-404.66833	45.27280	35.20678																																																	-514.86224	127.38486	9.54280	
240	1.992	-701.25940	197.32082	1692.01990	-799.56885	187.02103	1593.58923	-584.11200	195.73590	1639.10889	-589.51111	380.30063	1393.18396	-471.29562	98.12387	1261.04004	-446.95837	460.95096	1101.44263	-447.00580	467.72150	836.68127	-650.63397	-19.73707	1402.04834	-751.42896	-132.04128	1104.12122	-976.30225	-74.09833	994.66412	-672.27301	308.69354	924.65186	-660.45453	21.11941	926.55652	-440.79944	174.65004	926.30621	-826.25018	286.50708	610.32239	-796.97906	333.67770	483.69742	-879.23553	264.11935	267.81961				-827.96582	270.47894	44.20796	-1017.84564	317.91452	108.09170	-628.14410	76.54916	587.74762	-490.08713	35.19721	450.57245	-459.95871	117.87758	315.59698				-245.78952	123.07441	78.79150	-445.40607	79.79785	36.10544	-1056.48157	302.94788	130.94926	-1023.25098	282.63654	115.66383	-933.89832	247.39836	99.06052	-868.47119	243.24706	62.23496	-855.83472	316.10120	54.13600	-931.65961	344.74313	69.04490	-990.74316	354.77234	87.23622	-491.06772	104.87707	29.73286	-456.56543	118.31763	41.33447	-364.46799	157.63585	59.94836	-282.61093	156.00789	73.01012	-280.44919	87.84060	64.06328	-344.09991	58.25185	37.95337	-404.59390	45.36958	34.76507																																																	1400.92444	-628.38745	795.57855	-126.89622	104.93629	40.31609	-513.41217	126.41035	10.38485	
